<svg xmlns="http://www.w3.org/2000/svg" xmlns:xlink="http://www.w3.org/1999/xlink" width="1067px" height="1067px" viewBox="0 0 1066.666666666667 1066.666666666667">
    <g id="34e52250-98fb-4c89-bf23-2b197aa49860">
<filter id="SVGID_95" y="-23.4787%" height="146.9574%" x="-20.5483%" width="141.0966%" color-interpolation-filters="sRGB">
	<feGaussianBlur in="SourceAlpha" stdDeviation="2 2"></feGaussianBlur>
	<feOffset dx="1.570079" dy="29.958886" result="oBlur"></feOffset>
	<feFlood flood-color="rgb(86,85,63)" flood-opacity="1"></feFlood>
	<feComposite in2="oBlur" operator="in"></feComposite>
	<feMerge>
		<feMergeNode></feMergeNode>
		<feMergeNode in="SourceGraphic"></feMergeNode>
	</feMerge>
</filter>
<g style="filter: url(#SVGID_95); visibility: hidden;">
		<g id="34e52250-98fb-4c89-bf23-2b197aa49860-child-0">
<path style="stroke: none; stroke-width: 0; stroke-dasharray: none; stroke-linecap: butt; stroke-dashoffset: 0; stroke-linejoin: miter; stroke-miterlimit: 4; fill: rgb(255,255,255); fill-rule: nonzero; opacity: 1; visibility: hidden;" transform="matrix(1.166617 0 0 1.166617 533.33337 533.333368) matrix(1 0 0 1 0 0)  translate(-533.333357, -574.691599)" d="M942.41056,487.81326c16.26259,28.16798 16.26259,62.87221 0,91.04019l-122.16333,211.59568c-5.02834,8.70944 -6.38505,19.06157 -3.77083,28.77262c2.61422,9.71105 8.98456,17.98305 17.70566,22.99113l15.01727,8.62365c11.75747,6.75171 19.00723,19.27496 19.00723,32.83312c0,13.55816 -7.24976,26.08141 -19.00723,32.83312l-112.29274,64.48398c-13.7962,7.92245 -29.42761,12.09137 -45.33674,12.09137h-332.50229c-15.90913,0 -31.54054,-4.16892 -45.33674,-12.09137l-105.74283,-60.7227c-13.10438,-7.52517 -21.18465,-21.48305 -21.18465,-36.5944c0,-15.11135 8.08027,-29.06923 21.18465,-36.5944l16.73552,-9.61036c9.72017,-5.5818 16.82028,-14.80142 19.73398,-25.62494c2.9137,-10.82352 1.40157,-22.36156 -4.2028,-32.06874l-115.99852,-200.91778c-16.26259,-28.16798 -16.26259,-62.87221 0,-91.04019l165.11281,-285.98726c16.26285,-28.16842 46.31808,-45.52093 78.84408,-45.52093h330.24064c32.526,0 62.58123,17.3525 78.84408,45.52093z" stroke-linecap="round"></path>
</g>
</g>
</g>
<g id="15faf1c6-5972-4f89-a119-8327f3b088d8">
<g style="visibility: hidden;">
		<g transform="matrix(0.581512 0 0 0.581512 533.333419 435.65583) matrix(1 0 0 1 0 0)" id="15faf1c6-5972-4f89-a119-8327f3b088d8-child-0">
<linearGradient id="SVGID_70" gradientUnits="objectBoundingBox" gradientTransform="matrix(0.006586 0 0 0.00163 -5.019845 -0.147764)" x1="933.243" y1="534.223" x2="711.579" y2="215.741">
<stop offset="0%" style="stop-color:rgb(22, 37, 33);stop-opacity: 1"></stop>
<stop offset="100%" style="stop-color:rgb(152, 136, 95);stop-opacity: 1"></stop>
</linearGradient>
<path style="stroke: rgb(193,193,193); stroke-width: 0; stroke-dasharray: none; stroke-linecap: butt; stroke-dashoffset: 0; stroke-linejoin: miter; stroke-miterlimit: 4; fill: url(#SVGID_70); fill-rule: nonzero; opacity: 1; visibility: hidden;" transform="translate(-500, -500)" d="M 68.98 68.98 L 181.02 68.98 L 181.02 181.02 L 68.98 181.02 L 68.98 68.98 Z M 318.98 181.02 L 431.02 181.02 L 431.02 68.98 L 318.98 68.98 L 318.98 181.02 Z M 568.98 181.02 L 681.02 181.02 L 681.02 68.98 L 568.98 68.98 L 568.98 181.02 Z M 818.98 181.02 L 931.02 181.02 L 931.02 68.98 L 818.98 68.98 L 818.98 181.02 Z M 981.88 22.87 L 981.88 227.13 L 1000.00 227.13 L 1000.00 272.87 L 981.88 272.87 L 981.88 477.13 L 1000.00 477.13 L 1000.00 522.87 L 981.88 522.87 L 981.88 727.13 L 1000.00 727.13 L 1000.00 772.87 L 981.88 772.87 L 981.88 977.13 L 1000.00 977.13 L 1000.00 1000.00 L 977.13 1000.00 L 977.13 981.88 L 772.87 981.88 L 772.87 1000.00 L 727.13 1000.00 L 727.13 981.88 L 522.87 981.88 L 522.87 1000.00 L 477.13 1000.00 L 477.13 981.88 L 272.87 981.88 L 272.87 1000.00 L 227.13 1000.00 L 227.13 981.88 L 22.87 981.88 L 22.87 1000.00 L 0.00 1000.00 L 0.00 977.13 L 18.12 977.13 L 18.12 772.87 L 0.00 772.87 L 0.00 727.13 L 18.12 727.13 L 18.12 522.87 L 0.00 522.87 L 0.00 477.13 L 18.12 477.13 L 18.12 272.87 L 0.00 272.87 L 0.00 227.13 L 18.12 227.13 L 18.12 22.87 L 0.00 22.87 L 0.00 0.00 L 22.87 0.00 L 22.87 18.12 L 227.13 18.12 L 227.13 0.00 L 272.87 0.00 L 272.87 18.12 L 477.13 18.12 L 477.13 0.00 L 522.87 0.00 L 522.87 18.12 L 727.13 18.12 L 727.13 0.00 L 772.87 0.00 L 772.87 18.12 L 977.13 18.12 L 977.13 0.00 L 1000.00 0.00 L 1000.00 22.87 L 981.88 22.87 Z M 30.44 219.56 L 219.55 219.56 L 219.55 30.44 L 30.44 30.44 L 30.44 219.55 Z M 219.56 780.44 L 30.44 780.44 L 30.44 969.55 L 219.55 969.55 L 219.55 780.44 Z M 227.13 731.88 L 22.87 731.88 L 22.87 768.11 L 227.13 768.11 L 227.13 731.88 Z M 219.56 719.56 L 219.56 530.45 L 30.44 530.45 L 30.44 719.56 L 219.55 719.56 Z M 227.13 481.88 L 22.87 481.88 L 22.87 518.11 L 227.13 518.11 L 227.13 481.88 Z M 219.56 469.56 L 219.56 280.45 L 30.44 280.45 L 30.44 469.56 L 219.55 469.56 Z M 227.13 231.88 L 22.87 231.88 L 22.87 268.11 L 227.13 268.11 L 227.13 231.88 Z M 268.12 772.87 L 231.89 772.87 L 231.89 977.13 L 268.12 977.13 L 268.12 772.87 Z M 268.12 522.87 L 231.89 522.87 L 231.89 727.13 L 268.12 727.13 L 268.12 522.87 Z M 268.12 272.87 L 231.89 272.87 L 231.89 477.13 L 268.12 477.13 L 268.12 272.87 Z M 268.12 22.87 L 231.89 22.87 L 231.89 227.13 L 268.12 227.13 L 268.12 22.87 Z M 280.44 219.56 L 469.55 219.56 L 469.55 30.44 L 280.44 30.44 L 280.44 219.55 Z M 469.56 780.44 L 280.45 780.44 L 280.45 969.55 L 469.56 969.55 L 469.56 780.44 Z M 477.13 731.88 L 272.87 731.88 L 272.87 768.11 L 477.13 768.11 L 477.13 731.88 Z M 469.56 719.56 L 469.56 530.45 L 280.45 530.45 L 280.45 719.56 L 469.56 719.56 Z M 477.13 481.88 L 272.87 481.88 L 272.87 518.11 L 477.13 518.11 L 477.13 481.88 Z M 469.56 469.56 L 469.56 280.45 L 280.45 280.45 L 280.45 469.56 L 469.56 469.56 Z M 477.13 231.88 L 272.87 231.88 L 272.87 268.11 L 477.13 268.11 L 477.13 231.88 Z M 518.12 772.87 L 481.89 772.87 L 481.89 977.13 L 518.12 977.13 L 518.12 772.87 Z M 518.12 522.87 L 481.89 522.87 L 481.89 727.13 L 518.12 727.13 L 518.12 522.87 Z M 518.12 272.87 L 481.89 272.87 L 481.89 477.13 L 518.12 477.13 L 518.12 272.87 Z M 518.12 22.87 L 481.89 22.87 L 481.89 227.13 L 518.12 227.13 L 518.12 22.87 Z M 530.44 219.56 L 719.55 219.56 L 719.55 30.44 L 530.44 30.44 L 530.44 219.55 Z M 719.56 780.44 L 530.45 780.44 L 530.45 969.55 L 719.56 969.55 L 719.56 780.44 Z M 727.13 731.88 L 522.87 731.88 L 522.87 768.11 L 727.13 768.11 L 727.13 731.88 Z M 719.56 719.56 L 719.56 530.45 L 530.45 530.45 L 530.45 719.56 L 719.56 719.56 Z M 727.13 481.88 L 522.87 481.88 L 522.87 518.11 L 727.13 518.11 L 727.13 481.88 Z M 719.56 469.56 L 719.56 280.45 L 530.45 280.45 L 530.45 469.56 L 719.56 469.56 Z M 727.13 231.88 L 522.87 231.88 L 522.87 268.11 L 727.13 268.11 L 727.13 231.88 Z M 768.12 772.87 L 731.89 772.87 L 731.89 977.13 L 768.12 977.13 L 768.12 772.87 Z M 768.12 522.87 L 731.89 522.87 L 731.89 727.13 L 768.12 727.13 L 768.12 522.87 Z M 768.12 272.87 L 731.89 272.87 L 731.89 477.13 L 768.12 477.13 L 768.12 272.87 Z M 768.12 22.87 L 731.89 22.87 L 731.89 227.13 L 768.12 227.13 L 768.12 22.87 Z M 780.44 219.56 L 969.55 219.56 L 969.55 30.44 L 780.44 30.44 L 780.44 219.55 Z M 969.56 780.44 L 780.45 780.44 L 780.45 969.55 L 969.56 969.55 L 969.56 780.44 Z M 977.13 731.88 L 772.87 731.88 L 772.87 768.11 L 977.13 768.11 L 977.13 731.88 Z M 969.56 719.56 L 969.56 530.45 L 780.45 530.45 L 780.45 719.56 L 969.56 719.56 Z M 977.13 481.88 L 772.87 481.88 L 772.87 518.11 L 977.13 518.11 L 977.13 481.88 Z M 969.56 469.56 L 969.56 280.45 L 780.45 280.45 L 780.45 469.56 L 969.56 469.56 Z M 977.13 231.88 L 772.87 231.88 L 772.87 268.11 L 977.13 268.11 L 977.13 231.88 Z M 68.98 431.02 L 181.02 431.02 L 181.02 318.98 L 68.98 318.98 L 68.98 431.02 Z M 318.98 431.02 L 431.02 431.02 L 431.02 318.98 L 318.98 318.98 L 318.98 431.02 Z M 568.98 431.02 L 681.02 431.02 L 681.02 318.98 L 568.98 318.98 L 568.98 431.02 Z M 818.98 431.02 L 931.02 431.02 L 931.02 318.98 L 818.98 318.98 L 818.98 431.02 Z M 68.98 681.02 L 181.02 681.02 L 181.02 568.98 L 68.98 568.98 L 68.98 681.02 Z M 318.98 681.02 L 431.02 681.02 L 431.02 568.98 L 318.98 568.98 L 318.98 681.02 Z M 568.98 681.02 L 681.02 681.02 L 681.02 568.98 L 568.98 568.98 L 568.98 681.02 Z M 818.98 681.02 L 931.02 681.02 L 931.02 568.98 L 818.98 568.98 L 818.98 681.02 Z M 181.02 818.98 L 68.98 818.98 L 68.98 931.02 L 181.02 931.02 L 181.02 818.98 Z M 431.02 818.98 L 318.98 818.98 L 318.98 931.02 L 431.02 931.02 L 431.02 818.98 Z M 681.02 818.98 L 568.98 818.98 L 568.98 931.02 L 681.02 931.02 L 681.02 818.98 Z M 931.02 818.98 L 818.98 818.98 L 818.98 931.02 L 931.02 931.02 L 931.02 818.98 Z" stroke-linecap="round"></path>
</g>
</g>
</g>
<g id="990bd77b-82af-4b68-bf38-c7816889ff33">
<g style="visibility: hidden;">
		<g transform="matrix(0.615306 -0.000092 0.000092 0.615306 533.333169 447.844382) matrix(1 0 0 1 0 220.604237)" id="990bd77b-82af-4b68-bf38-c7816889ff33-child-0">
<linearGradient id="SVGID_80" gradientUnits="objectBoundingBox" gradientTransform="matrix(0.006586 0 0 0.00163 -5.019845 -0.147764)" x1="933.243" y1="534.223" x2="711.579" y2="215.741">
<stop offset="0%" style="stop-color:rgb(67, 182, 152);stop-opacity: 1"></stop>
<stop offset="100%" style="stop-color:rgb(55, 230, 58);stop-opacity: 1"></stop>
</linearGradient>
<path style="stroke: rgb(193,193,193); stroke-width: 0; stroke-dasharray: none; stroke-linecap: butt; stroke-dashoffset: 0; stroke-linejoin: miter; stroke-miterlimit: 4; fill: url(#SVGID_80); fill-rule: nonzero; opacity: 1; visibility: hidden;" transform="translate(-534.4035, -748.095)" d="M 3.01 879.58 L 762.15 441.30 L 1065.79 616.61 L 306.67 1054.89 z" stroke-linecap="round"></path>
</g>
		<g id="990bd77b-82af-4b68-bf38-c7816889ff33-child-1">
<path style="stroke: rgb(193,193,193); stroke-width: 0; stroke-dasharray: none; stroke-linecap: butt; stroke-dashoffset: 0; stroke-linejoin: miter; stroke-miterlimit: 4; fill: rgb(216,238,220); fill-rule: nonzero; opacity: 1; visibility: hidden;" transform="matrix(0.615306 -0.000092 0.000092 0.615306 533.333169 447.844382) matrix(1 0 0 1 -0.001 220.603737)  translate(-534.4025, -748.0945)" d="M 988.81 572.16 L 988.81 575.62 L 934.84 575.62 L 934.84 541.00 L 931.82 539.26 L 931.82 575.62 L 877.85 575.62 L 877.85 521.64 L 901.31 521.64 L 896.09 518.63 L 877.85 518.63 L 877.85 508.10 L 874.84 506.36 L 874.84 518.63 L 820.86 518.63 L 820.86 475.19 L 817.85 473.45 L 817.85 518.63 L 763.87 518.63 L 763.87 464.65 L 802.60 464.65 L 797.38 461.64 L 763.87 461.64 L 763.87 442.29 L 762.14 441.29 L 760.86 442.04 L 760.86 461.64 L 726.90 461.64 L 721.68 464.65 L 760.86 464.65 L 760.86 518.63 L 706.88 518.63 L 706.88 473.20 L 703.87 474.94 L 703.87 518.63 L 649.89 518.63 L 649.89 506.10 L 646.88 507.84 L 646.88 518.63 L 628.19 518.63 L 622.98 521.64 L 646.88 521.64 L 646.88 575.62 L 592.90 575.62 L 592.90 539.00 L 589.89 540.74 L 589.89 575.62 L 535.91 575.62 L 535.91 571.91 L 532.90 573.65 L 532.90 575.62 L 529.48 575.62 L 524.27 578.63 L 532.90 578.63 L 532.90 632.61 L 478.92 632.61 L 478.92 604.81 L 475.91 606.55 L 475.91 632.61 L 430.78 632.61 L 425.56 635.62 L 475.91 635.62 L 475.91 689.60 L 421.93 689.60 L 421.93 637.71 L 418.92 639.45 L 418.92 689.60 L 364.94 689.60 L 364.94 670.62 L 361.93 672.36 L 361.93 689.60 L 332.07 689.60 L 326.85 692.61 L 361.93 692.61 L 361.93 746.59 L 307.95 746.59 L 307.95 703.52 L 304.94 705.26 L 304.94 746.59 L 250.96 746.59 L 250.96 736.42 L 247.95 738.16 L 247.95 746.59 L 233.36 746.59 L 228.14 749.60 L 247.95 749.60 L 247.95 803.58 L 193.97 803.58 L 193.97 769.33 L 190.96 771.07 L 190.96 803.58 L 136.98 803.58 L 136.98 802.23 L 134.65 803.58 L 133.97 803.97 L 129.43 806.59 L 133.97 806.59 L 133.97 860.57 L 79.99 860.57 L 79.99 835.13 L 76.98 836.87 L 76.98 922.29 L 79.99 924.02 L 79.99 920.57 L 133.97 920.57 L 133.97 955.19 L 136.98 956.93 L 136.98 920.57 L 190.96 920.57 L 190.96 974.55 L 167.50 974.55 L 172.71 977.56 L 190.96 977.56 L 190.96 988.09 L 193.97 989.83 L 193.97 977.56 L 247.95 977.56 L 247.95 1020.99 L 250.96 1022.73 L 250.96 977.56 L 304.94 977.56 L 304.94 1031.54 L 266.21 1031.54 L 271.42 1034.55 L 304.94 1034.55 L 304.94 1053.90 L 306.67 1054.90 L 307.95 1054.15 L 307.95 1034.55 L 341.91 1034.55 L 347.12 1031.54 L 307.95 1031.54 L 307.95 977.56 L 361.93 977.56 L 361.93 1022.99 L 364.94 1021.25 L 364.94 977.56 L 418.92 977.56 L 418.92 990.09 L 421.93 988.35 L 421.93 977.56 L 440.62 977.56 L 445.83 974.55 L 421.93 974.55 L 421.93 920.57 L 475.91 920.57 L 475.91 957.18 L 478.92 955.44 L 478.92 920.57 L 532.90 920.57 L 532.90 924.28 L 535.91 922.54 L 535.91 920.57 L 539.32 920.57 L 544.54 917.56 L 535.91 917.56 L 535.91 863.58 L 589.89 863.58 L 589.89 891.38 L 592.90 889.64 L 592.90 863.58 L 638.03 863.58 L 643.25 860.57 L 592.90 860.57 L 592.90 806.59 L 646.88 806.59 L 646.88 858.47 L 649.89 856.73 L 649.89 806.59 L 703.87 806.59 L 703.87 825.57 L 706.88 823.83 L 706.88 806.59 L 736.74 806.59 L 741.95 803.58 L 706.88 803.58 L 706.88 749.60 L 760.85 749.60 L 760.85 792.67 L 763.87 790.93 L 763.87 749.60 L 817.84 749.60 L 817.84 759.76 L 820.86 758.02 L 820.86 749.60 L 835.44 749.60 L 840.66 746.59 L 820.85 746.59 L 820.85 692.61 L 874.83 692.61 L 874.83 726.86 L 877.84 725.12 L 877.84 692.61 L 931.82 692.61 L 931.82 693.96 L 939.37 689.60 L 934.84 689.60 L 934.84 635.62 L 988.81 635.62 L 988.81 661.05 L 991.83 659.31 L 991.83 573.90 L 988.81 572.16 Z M 931.82 578.63 L 931.82 632.61 L 877.85 632.61 L 877.85 578.63 L 931.82 578.63 Z M 193.97 863.58 L 247.95 863.58 L 247.95 917.55 L 193.97 917.55 L 193.97 863.58 Z M 307.95 806.59 L 361.93 806.59 L 361.93 860.57 L 307.95 860.57 L 307.95 806.59 Z M 304.94 860.57 L 250.96 860.57 L 250.96 806.59 L 304.94 806.59 L 304.94 860.57 Z M 250.96 863.58 L 304.94 863.58 L 304.94 917.55 L 250.96 917.55 L 250.96 863.58 Z M 307.95 863.58 L 361.93 863.58 L 361.93 917.55 L 307.95 917.55 L 307.95 863.58 Z M 364.94 863.58 L 418.92 863.58 L 418.92 917.55 L 364.94 917.55 L 364.94 863.58 Z M 364.94 860.57 L 364.94 806.59 L 418.92 806.59 L 418.92 860.57 L 364.94 860.57 Z M 421.93 749.60 L 475.91 749.60 L 475.91 803.58 L 421.93 803.58 L 421.93 749.60 Z M 418.92 803.58 L 364.94 803.58 L 364.94 749.60 L 418.92 749.60 L 418.92 803.58 Z M 421.93 806.59 L 475.91 806.59 L 475.91 860.57 L 421.93 860.57 L 421.93 806.59 Z M 478.92 806.59 L 532.90 806.59 L 532.90 860.57 L 478.92 860.57 L 478.92 806.59 Z M 478.92 803.58 L 478.92 749.60 L 532.90 749.60 L 532.90 803.58 L 478.92 803.58 Z M 532.90 746.59 L 478.92 746.59 L 478.92 692.61 L 532.90 692.61 L 532.90 746.59 Z M 535.91 749.60 L 589.89 749.60 L 589.89 803.58 L 535.91 803.58 L 535.91 749.60 Z M 535.91 746.59 L 535.91 692.61 L 589.89 692.61 L 589.89 746.59 L 535.91 746.59 Z M 592.90 635.62 L 646.88 635.62 L 646.88 689.60 L 592.90 689.60 L 592.90 635.62 Z M 589.89 689.60 L 535.91 689.60 L 535.91 635.62 L 589.89 635.62 L 589.89 689.60 Z M 592.90 692.61 L 646.88 692.61 L 646.88 746.59 L 592.90 746.59 L 592.90 692.61 Z M 649.89 692.61 L 703.87 692.61 L 703.87 746.59 L 649.89 746.59 L 649.89 692.61 Z M 649.89 689.60 L 649.89 635.62 L 703.87 635.62 L 703.87 689.60 L 649.89 689.60 Z M 706.88 578.63 L 760.86 578.63 L 760.86 632.61 L 706.88 632.61 L 706.88 578.63 Z M 703.87 632.61 L 649.89 632.61 L 649.89 578.63 L 703.87 578.63 L 703.87 632.61 Z M 706.88 635.62 L 760.86 635.62 L 760.86 689.60 L 706.88 689.60 L 706.88 635.62 Z M 763.87 635.62 L 817.85 635.62 L 817.85 689.60 L 763.87 689.60 L 763.87 635.62 Z M 763.87 632.61 L 763.87 578.63 L 817.85 578.63 L 817.85 632.61 L 763.87 632.61 Z M 820.86 578.63 L 874.84 578.63 L 874.84 632.61 L 820.86 632.61 L 820.86 578.63 Z M 874.84 521.64 L 874.84 575.62 L 820.86 575.62 L 820.86 521.64 L 874.84 521.64 Z M 817.85 521.64 L 817.85 575.62 L 763.87 575.62 L 763.87 521.64 L 817.85 521.64 Z M 760.86 521.64 L 760.86 575.62 L 706.88 575.62 L 706.88 521.64 L 760.86 521.64 Z M 649.89 521.64 L 703.87 521.64 L 703.87 575.62 L 649.89 575.62 L 649.89 521.64 Z M 646.88 578.63 L 646.88 632.61 L 592.90 632.61 L 592.90 578.63 L 646.88 578.63 Z M 535.91 578.63 L 589.89 578.63 L 589.89 632.61 L 535.91 632.61 L 535.91 578.63 Z M 478.92 635.62 L 532.90 635.62 L 532.90 689.60 L 478.92 689.60 L 478.92 635.62 Z M 475.91 692.61 L 475.91 746.59 L 421.93 746.59 L 421.93 692.61 L 475.91 692.61 Z M 364.94 692.61 L 418.92 692.61 L 418.92 746.59 L 364.94 746.59 L 364.94 692.61 Z M 361.93 749.60 L 361.93 803.58 L 307.95 803.58 L 307.95 749.60 L 361.93 749.60 Z M 250.96 749.60 L 304.94 749.60 L 304.94 803.58 L 250.96 803.58 L 250.96 749.60 Z M 247.95 806.59 L 247.95 860.57 L 193.97 860.57 L 193.97 806.59 L 247.95 806.59 Z M 136.98 806.59 L 190.96 806.59 L 190.96 860.57 L 136.98 860.57 L 136.98 806.59 Z M 79.99 917.56 L 79.99 863.58 L 133.97 863.58 L 133.97 917.56 L 79.99 917.56 Z M 136.98 917.56 L 136.98 863.58 L 190.96 863.58 L 190.96 917.56 L 136.98 917.56 Z M 193.97 974.55 L 193.97 920.57 L 247.95 920.57 L 247.95 974.55 L 193.97 974.55 Z M 250.96 974.55 L 250.96 920.57 L 304.94 920.57 L 304.94 974.55 L 250.96 974.55 Z M 307.95 974.55 L 307.95 920.57 L 361.93 920.57 L 361.93 974.55 L 307.95 974.55 Z M 364.94 974.55 L 364.94 920.57 L 418.92 920.57 L 418.92 974.55 L 364.94 974.55 Z M 421.93 917.56 L 421.93 863.58 L 475.91 863.58 L 475.91 917.56 L 421.93 917.56 Z M 478.92 917.56 L 478.92 863.58 L 532.90 863.58 L 532.90 917.56 L 478.92 917.56 Z M 535.91 860.57 L 535.91 806.59 L 589.89 806.59 L 589.89 860.57 L 535.91 860.57 Z M 592.90 803.58 L 592.90 749.60 L 646.88 749.60 L 646.88 803.58 L 592.90 803.58 Z M 649.89 803.58 L 649.89 749.60 L 703.87 749.60 L 703.87 803.58 L 649.89 803.58 Z M 706.88 746.59 L 706.88 692.61 L 760.86 692.61 L 760.86 746.59 L 706.88 746.59 Z M 763.87 746.59 L 763.87 692.61 L 817.85 692.61 L 817.85 746.59 L 763.87 746.59 Z M 820.86 689.60 L 820.86 635.62 L 874.84 635.62 L 874.84 689.60 L 820.86 689.60 Z M 877.85 689.60 L 877.85 635.62 L 931.83 635.62 L 931.83 689.60 L 877.85 689.60 Z M 934.84 632.61 L 934.84 578.63 L 988.82 578.63 L 988.82 632.61 L 934.84 632.61 Z" stroke-linecap="round"></path>
</g>
		<g id="990bd77b-82af-4b68-bf38-c7816889ff33-child-2">
<path style="stroke: rgb(193,193,193); stroke-width: 0; stroke-dasharray: none; stroke-linecap: butt; stroke-dashoffset: 0; stroke-linejoin: miter; stroke-miterlimit: 4; fill: rgb(255,120,114); fill-rule: nonzero; opacity: 1; visibility: hidden;" transform="matrix(0.615306 -0.000092 0.000092 0.615306 533.333169 447.844382) matrix(1 0 0 1 0 220.603487)  translate(-534.4035, -748.09425)" d="M 1067.30 614.00 L 763.65 438.69 C 762.72 438.15 761.57 438.15 760.64 438.69 L 1.51 876.97 C 0.57 877.51 0.00 878.50 0.00 879.58 C 0.00 880.66 0.57 881.65 1.51 882.19 L 305.16 1057.50 C 305.63 1057.77 306.14 1057.91 306.66 1057.91 C 307.19 1057.91 307.70 1057.77 308.17 1057.50 L 1067.30 619.22 C 1068.23 618.68 1068.81 617.68 1068.81 616.61 C 1068.81 615.53 1068.23 614.54 1067.30 614.00 Z M 306.66 1051.41 L 9.04 879.58 L 762.15 444.77 L 1059.77 616.61 L 306.66 1051.41 Z" stroke-linecap="round"></path>
</g>
		<g id="990bd77b-82af-4b68-bf38-c7816889ff33-child-3">
<path style="stroke: rgb(193,193,193); stroke-width: 0; stroke-dasharray: none; stroke-linecap: butt; stroke-dashoffset: 0; stroke-linejoin: miter; stroke-miterlimit: 4; fill: rgb(238,220,249); fill-rule: nonzero; opacity: 1; visibility: hidden;" transform="matrix(0.615306 -0.000092 0.000092 0.615306 533.333169 447.844382) matrix(1 0 0 1 0.0055 220.935737)  translate(-534.409, -748.4265)" d="M 913.98 616.61 L 762.15 704.27 L 686.24 660.44 L 686.24 572.78 L 762.15 528.96 L 913.98 616.61 Z M 458.49 704.27 L 458.49 792.59 C 458.49 792.59 534.41 835.75 534.41 835.75 L 686.23 748.10 L 534.41 660.44 L 458.49 704.27 Z M 154.84 880.24 L 306.67 967.90 L 458.49 880.24 L 306.67 792.59 L 154.84 880.24 Z" stroke-linecap="round"></path>
</g>
		<g id="990bd77b-82af-4b68-bf38-c7816889ff33-child-4">
<path style="stroke: rgb(193,193,193); stroke-width: 0; stroke-dasharray: none; stroke-linecap: butt; stroke-dashoffset: 0; stroke-linejoin: miter; stroke-miterlimit: 4; fill: rgb(27,53,181); fill-rule: nonzero; opacity: 1; visibility: hidden;" transform="matrix(0.615306 -0.000092 0.000092 0.615306 533.333169 447.844382) matrix(1 0 0 1 0.0055 -42.034763)  translate(-534.409, -485.456)" d="M 531.39 485.12 L 531.39 309.81 C 531.39 308.15 532.74 306.80 534.41 306.80 C 536.07 306.80 537.42 308.15 537.42 309.81 L 537.42 485.12 C 537.42 486.79 536.07 488.14 534.41 488.14 C 532.74 488.14 531.39 486.79 531.39 485.12 Z M 762.15 181.34 C 763.81 181.34 765.16 179.99 765.16 178.32 L 765.16 3.01 C 765.16 1.35 763.81 0.00 762.15 0.00 C 760.49 0.00 759.14 1.35 759.14 3.01 L 759.14 178.32 C 759.14 179.99 760.49 181.34 762.15 181.34 Z M 916.99 616.61 C 916.99 617.69 916.41 618.68 915.48 619.22 L 763.65 706.88 C 763.19 707.14 762.67 707.28 762.15 707.28 C 761.63 707.28 761.11 707.14 760.64 706.88 L 684.73 663.05 C 683.80 662.51 683.23 661.52 683.23 660.44 L 683.23 572.78 C 683.23 571.71 683.80 570.71 684.73 570.17 L 760.64 526.35 C 761.58 525.81 762.72 525.81 763.66 526.35 L 915.48 614.00 C 916.41 614.54 916.99 615.53 916.99 616.61 Z M 907.95 616.61 L 762.15 532.43 L 689.25 574.52 L 689.25 658.70 C 689.25 658.70 762.15 700.79 762.15 700.79 L 907.95 616.61 Z M 461.51 880.24 C 461.51 881.32 460.93 882.31 460.00 882.85 L 308.17 970.51 C 307.71 970.78 307.19 970.91 306.67 970.91 C 306.15 970.91 305.63 970.78 305.16 970.51 L 153.34 882.85 C 152.40 882.31 151.83 881.32 151.83 880.24 C 151.83 879.17 152.41 878.17 153.34 877.63 L 303.66 790.85 L 303.66 616.61 C 303.66 614.95 305.01 613.60 306.67 613.60 C 308.33 613.60 309.68 614.95 309.68 616.61 L 309.68 790.85 L 460.00 877.63 C 460.93 878.17 461.51 879.17 461.51 880.24 Z M 452.47 880.24 L 306.67 796.07 L 160.87 880.24 L 306.67 964.42 L 452.47 880.24 Z M 687.74 745.49 L 535.91 657.83 C 534.98 657.29 533.83 657.29 532.90 657.83 L 456.99 701.66 C 456.06 702.19 455.48 703.19 455.48 704.27 L 455.48 792.59 C 455.48 792.72 455.54 792.83 455.56 792.96 C 455.58 793.17 455.61 793.37 455.68 793.57 C 455.74 793.75 455.84 793.91 455.93 794.08 C 456.03 794.24 456.12 794.40 456.25 794.55 C 456.39 794.71 456.55 794.83 456.72 794.96 C 456.82 795.04 456.89 795.14 457.01 795.21 L 532.92 838.37 C 533.39 838.64 533.90 838.76 534.40 838.76 C 535.45 838.76 536.47 838.21 537.03 837.24 C 537.85 835.79 537.34 833.95 535.90 833.13 L 461.51 790.83 L 461.51 706.00 L 534.41 663.92 L 684.73 750.70 C 686.17 751.54 688.01 751.04 688.84 749.60 C 689.67 748.16 689.18 746.32 687.74 745.49 Z" stroke-linecap="round"></path>
</g>
		<g transform="matrix(0.615306 -0.000092 0.000092 0.615306 533.333169 447.844382) matrix(1 0 0 1 0.006 -130.023263)" id="990bd77b-82af-4b68-bf38-c7816889ff33-child-5">
<linearGradient id="SVGID_80" gradientUnits="objectBoundingBox" gradientTransform="matrix(0.006586 0 0 0.00163 -5.019845 -0.147764)" x1="933.243" y1="534.223" x2="711.579" y2="215.741">
<stop offset="0%" style="stop-color:rgb(67, 182, 152);stop-opacity: 1"></stop>
<stop offset="100%" style="stop-color:rgb(55, 230, 58);stop-opacity: 1"></stop>
</linearGradient>
<path style="stroke: rgb(193,193,193); stroke-width: 0; stroke-dasharray: none; stroke-linecap: butt; stroke-dashoffset: 0; stroke-linejoin: miter; stroke-miterlimit: 4; fill: url(#SVGID_80); fill-rule: nonzero; opacity: 1; visibility: hidden;" transform="translate(-534.4095, -397.4675)" d="M 913.98 90.67 L 762.15 178.32 L 610.33 90.67 L 762.15 3.01 L 913.97 90.67 Z M 382.58 397.47 L 534.41 485.12 L 686.24 397.47 L 534.41 309.81 L 382.59 397.47 Z M 154.84 704.27 L 306.67 791.92 L 458.49 704.27 L 306.67 616.61 L 154.84 704.27 Z" stroke-linecap="round"></path>
</g>
		<g transform="matrix(0.615306 -0.000092 0.000092 0.615306 533.333169 447.844382) matrix(1 0 0 1 303.658 -130.022763)" id="990bd77b-82af-4b68-bf38-c7816889ff33-child-6">
<linearGradient id="SVGID_82" gradientUnits="objectBoundingBox" gradientTransform="matrix(0.006586 0 0 0.00163 -5.019845 -0.147764)" x1="933.243" y1="534.223" x2="711.579" y2="215.741">
<stop offset="0%" style="stop-color:rgb(67, 182, 152);stop-opacity: 1"></stop>
<stop offset="100%" style="stop-color:rgb(55, 230, 58);stop-opacity: 1"></stop>
</linearGradient>
<path style="stroke: rgb(193,193,193); stroke-width: 0; stroke-dasharray: none; stroke-linecap: butt; stroke-dashoffset: 0; stroke-linejoin: miter; stroke-miterlimit: 4; fill: url(#SVGID_82); fill-rule: nonzero; opacity: 1; visibility: hidden;" transform="translate(-838.0615, -397.468)" d="M 762.15 704.27 L 913.98 616.61 L 913.98 90.67 L 762.15 178.32 z" stroke-linecap="round"></path>
</g>
		<g transform="matrix(0.615306 -0.000092 0.000092 0.615306 533.333169 447.844382) matrix(1 0 0 1 151.832 -130.022763)" id="990bd77b-82af-4b68-bf38-c7816889ff33-child-7">
<linearGradient id="SVGID_84" gradientUnits="objectBoundingBox" gradientTransform="matrix(0.006586 0 0 0.00163 -5.019845 -0.147764)" x1="933.243" y1="534.223" x2="711.579" y2="215.741">
<stop offset="0%" style="stop-color:rgb(67, 182, 152);stop-opacity: 1"></stop>
<stop offset="100%" style="stop-color:rgb(55, 230, 58);stop-opacity: 1"></stop>
</linearGradient>
<path style="stroke: rgb(193,193,193); stroke-width: 0; stroke-dasharray: none; stroke-linecap: butt; stroke-dashoffset: 0; stroke-linejoin: miter; stroke-miterlimit: 4; fill: url(#SVGID_84); fill-rule: nonzero; opacity: 1; visibility: hidden;" transform="translate(-686.2355, -397.468)" d="M 686.23 397.47 L 686.24 660.44 L 762.15 704.27 L 762.15 178.32 L 610.33 90.67 L 610.32 353.64 z" stroke-linecap="round"></path>
</g>
		<g transform="matrix(0.615306 -0.000092 0.000092 0.615306 533.333169 447.844382) matrix(1 0 0 1 75.917 89.117737)" id="990bd77b-82af-4b68-bf38-c7816889ff33-child-8">
<linearGradient id="SVGID_86" gradientUnits="objectBoundingBox" gradientTransform="matrix(0.006586 0 0 0.00163 -5.019845 -0.147764)" x1="933.243" y1="534.223" x2="711.579" y2="215.741">
<stop offset="0%" style="stop-color:rgb(67, 182, 152);stop-opacity: 1"></stop>
<stop offset="100%" style="stop-color:rgb(55, 230, 58);stop-opacity: 1"></stop>
</linearGradient>
<path style="stroke: rgb(193,193,193); stroke-width: 0; stroke-dasharray: none; stroke-linecap: butt; stroke-dashoffset: 0; stroke-linejoin: miter; stroke-miterlimit: 4; fill: url(#SVGID_86); fill-rule: nonzero; opacity: 1; visibility: hidden;" transform="translate(-610.3205, -616.6085)" d="M 534.41 835.75 L 686.23 748.09 L 686.23 397.47 L 534.41 485.12 z" stroke-linecap="round"></path>
</g>
		<g transform="matrix(0.615306 -0.000092 0.000092 0.615306 533.333169 447.844382) matrix(1 0 0 1 -75.9095 89.117737)" id="990bd77b-82af-4b68-bf38-c7816889ff33-child-9">
<linearGradient id="SVGID_88" gradientUnits="objectBoundingBox" gradientTransform="matrix(0.006586 0 0 0.00163 -5.019845 -0.147764)" x1="933.243" y1="534.223" x2="711.579" y2="215.741">
<stop offset="0%" style="stop-color:rgb(67, 182, 152);stop-opacity: 1"></stop>
<stop offset="100%" style="stop-color:rgb(55, 230, 58);stop-opacity: 1"></stop>
</linearGradient>
<path style="stroke: rgb(193,193,193); stroke-width: 0; stroke-dasharray: none; stroke-linecap: butt; stroke-dashoffset: 0; stroke-linejoin: miter; stroke-miterlimit: 4; fill: url(#SVGID_88); fill-rule: nonzero; opacity: 1; visibility: hidden;" transform="translate(-458.494, -616.6085)" d="M 458.49 704.27 L 458.49 792.59 L 534.41 835.75 L 534.41 485.12 L 382.58 397.47 L 382.58 660.44 z" stroke-linecap="round"></path>
</g>
		<g transform="matrix(0.615306 -0.000092 0.000092 0.615306 533.333169 447.844382) matrix(1 0 0 1 -151.824 308.262237)" id="990bd77b-82af-4b68-bf38-c7816889ff33-child-10">
<linearGradient id="SVGID_90" gradientUnits="objectBoundingBox" gradientTransform="matrix(0.006586 0 0 0.00163 -5.019845 -0.147764)" x1="933.243" y1="534.223" x2="711.579" y2="215.741">
<stop offset="0%" style="stop-color:rgb(67, 182, 152);stop-opacity: 1"></stop>
<stop offset="100%" style="stop-color:rgb(55, 230, 58);stop-opacity: 1"></stop>
</linearGradient>
<path style="stroke: rgb(193,193,193); stroke-width: 0; stroke-dasharray: none; stroke-linecap: butt; stroke-dashoffset: 0; stroke-linejoin: miter; stroke-miterlimit: 4; fill: url(#SVGID_90); fill-rule: nonzero; opacity: 1; visibility: hidden;" transform="translate(-382.5795, -835.753)" d="M 306.67 967.24 L 458.49 879.58 L 458.49 704.27 L 306.67 791.92 z" stroke-linecap="round"></path>
</g>
		<g transform="matrix(0.615306 -0.000092 0.000092 0.615306 533.333169 447.844382) matrix(1 0 0 1 -303.651 308.262237)" id="990bd77b-82af-4b68-bf38-c7816889ff33-child-11">
<linearGradient id="SVGID_92" gradientUnits="objectBoundingBox" gradientTransform="matrix(0.006586 0 0 0.00163 -5.019845 -0.147764)" x1="933.243" y1="534.223" x2="711.579" y2="215.741">
<stop offset="0%" style="stop-color:rgb(67, 182, 152);stop-opacity: 1"></stop>
<stop offset="100%" style="stop-color:rgb(55, 230, 58);stop-opacity: 1"></stop>
</linearGradient>
<path style="stroke: rgb(193,193,193); stroke-width: 0; stroke-dasharray: none; stroke-linecap: butt; stroke-dashoffset: 0; stroke-linejoin: miter; stroke-miterlimit: 4; fill: url(#SVGID_92); fill-rule: nonzero; opacity: 1; visibility: hidden;" transform="translate(-230.7525, -835.753)" d="M 154.84 879.58 L 306.67 967.24 L 306.67 791.92 L 154.84 704.27 z" stroke-linecap="round"></path>
</g>
		<g transform="matrix(0.615306 -0.000092 0.000092 0.615306 533.333169 447.844382) matrix(0.999915 -0.013018 0.013018 0.999915 0.004 -42.365013)" id="990bd77b-82af-4b68-bf38-c7816889ff33-child-12">
<linearGradient id="SVGID_94" gradientUnits="objectBoundingBox" gradientTransform="matrix(0.006586 0 0 0.00163 -5.019845 -0.147764)" x1="933.243" y1="534.223" x2="711.579" y2="215.741">
<stop offset="0%" style="stop-color:rgb(22, 37, 33);stop-opacity: 1"></stop>
<stop offset="100%" style="stop-color:rgb(228, 228, 228);stop-opacity: 1"></stop>
</linearGradient>
<path style="stroke: rgb(193,193,193); stroke-width: 0; stroke-dasharray: none; stroke-linecap: butt; stroke-dashoffset: 0; stroke-linejoin: miter; stroke-miterlimit: 4; fill: url(#SVGID_94); fill-rule: nonzero; opacity: 1; visibility: hidden;" transform="translate(-534.4075, -485.12575)" d="M 915.48 88.06 L 763.66 0.40 C 762.72 -0.13 761.58 -0.13 760.64 0.40 L 608.82 88.06 C 607.89 88.60 607.31 89.59 607.31 90.67 L 607.31 348.42 C 607.31 348.42 535.92 307.20 535.92 307.20 C 534.98 306.66 533.84 306.66 532.90 307.20 L 381.08 394.86 C 380.15 395.40 379.57 396.39 379.57 397.47 L 379.57 655.22 L 308.18 614.00 C 307.24 613.46 306.10 613.46 305.16 614.00 L 153.34 701.66 C 152.41 702.19 151.83 703.19 151.83 704.27 L 151.83 879.58 C 151.83 880.66 152.40 881.65 153.34 882.19 L 305.16 969.85 C 305.63 970.12 306.15 970.25 306.67 970.25 C 307.19 970.25 307.71 970.12 308.17 969.85 L 460.00 882.19 C 460.93 881.65 461.51 880.66 461.51 879.58 L 461.51 704.27 C 461.51 703.19 460.93 702.20 460.00 701.66 L 385.59 658.70 L 385.60 402.69 L 531.39 486.86 L 531.39 835.75 C 531.39 836.12 531.48 836.46 531.61 836.79 C 531.64 836.88 531.67 836.95 531.70 837.03 C 531.85 837.34 532.03 837.64 532.28 837.88 C 532.28 837.88 532.28 837.88 532.28 837.88 C 532.46 838.07 532.67 838.23 532.90 838.36 C 532.97 838.40 533.05 838.42 533.13 838.45 C 533.21 838.49 533.29 838.52 533.37 838.56 C 533.71 838.68 534.05 838.77 534.41 838.77 C 534.76 838.77 535.11 838.68 535.45 838.56 C 535.53 838.52 535.61 838.49 535.69 838.45 C 535.76 838.42 535.84 838.40 535.91 838.36 L 687.74 750.70 C 688.67 750.16 689.25 749.17 689.25 748.09 L 689.25 665.66 L 760.64 706.88 C 761.11 707.15 761.63 707.28 762.15 707.28 C 762.67 707.28 763.19 707.15 763.65 706.88 L 915.48 619.22 C 916.41 618.68 916.99 617.68 916.99 616.61 L 916.99 90.67 C 916.99 89.59 916.41 88.60 915.48 88.06 Z M 306.67 620.09 L 452.47 704.27 L 306.67 788.44 L 160.87 704.27 L 306.67 620.09 Z M 157.85 709.48 L 303.65 793.66 L 303.65 962.02 L 157.85 877.84 L 157.85 709.49 Z M 309.68 962.02 L 309.68 793.66 L 455.48 709.48 L 455.48 877.84 L 309.68 962.02 Z M 762.15 6.49 L 907.95 90.67 L 762.15 174.85 L 616.35 90.67 L 762.15 6.49 Z M 534.41 313.29 L 680.21 397.47 L 534.41 481.65 L 388.61 397.47 L 534.41 313.29 Z M 537.42 830.53 L 537.42 486.86 L 683.22 402.69 L 683.22 746.35 L 537.42 830.53 Z M 689.25 397.47 C 689.25 396.39 688.67 395.40 687.74 394.86 L 613.34 351.90 L 613.34 95.89 C 613.34 95.89 759.14 180.06 759.14 180.06 L 759.14 699.05 L 689.25 658.70 L 689.25 397.47 Z M 765.16 699.05 L 765.16 180.06 L 910.96 95.88 L 910.96 614.87 L 765.16 699.05 Z" stroke-linecap="round"></path>
</g>
</g>
</g>
<g transform="matrix(1.21112 0 0 1.21112 533.333321 862.131257)" style="" id="a48dd606-517f-4195-8656-9c9f888f013a">
<linearGradient id="SVGID_51" gradientUnits="objectBoundingBox" gradientTransform="matrix(0.006586 0 0 0.00163 -5.019845 -0.147764)" x1="933.243" y1="534.223" x2="711.579" y2="215.741">
<stop offset="0%" style="stop-color:rgb(22, 37, 33);stop-opacity: 1"></stop>
<stop offset="100%" style="stop-color:rgb(152, 136, 95);stop-opacity: 1"></stop>
</linearGradient>
<g style="visibility: hidden;" transform="translate(0 0)"><g fill="url(#SVGID_51)"><path d="M-118.80000 -16.93192L-118.80000 -78.77992L-94.03200 -78.77992L-94.03200 -66.82792L-106.20000 -66.82792L-106.20000 -54.80392L-94.53600 -54.80392L-94.53600 -43.13992L-106.20000 -43.13992L-106.20000 -28.95592L-93.24000 -28.95592L-93.24000 -16.93192ZM-89.35200 -16.93192L-89.35200 -79.13992L-76.53600 -79.13992L-76.53600 -16.93192ZM-56.73600 -16.35592Q-64.87200 -16.35592 -68.40000 -20.81992Q-71.92800 -25.28392 -71.92800 -34.13992L-71.92800 -55.30792Q-71.92800 -62.57992 -67.75200 -66.39592Q-63.57600 -70.21192 -56.08800 -70.21192Q-40.89600 -70.21192 -40.89600 -55.30792L-40.89600 -51.49192Q-40.89600 -45.73192 -41.04000 -42.13192L-59.32800 -42.13192L-59.32800 -31.90792Q-59.32800 -29.17192 -58.75200 -27.62392Q-58.17600 -26.07592 -56.30400 -26.07592Q-54.86400 -26.07592 -54.25200 -26.93992Q-53.64000 -27.80392 -53.53200 -28.91992Q-53.42400 -30.03592 -53.42400 -32.19592L-53.42400 -37.30792L-40.89600 -37.30792L-40.89600 -34.28392Q-40.89600 -25.06792 -44.46000 -20.71192Q-48.02400 -16.35592 -56.73600 -16.35592ZM-53.42400 -48.39592L-53.42400 -55.16392Q-53.42400 -60.85192 -56.23200 -60.85192Q-59.40000 -60.85192 -59.40000 -55.16392L-59.40000 -48.39592ZM-21.88800 -16.35592Q-37.51200 -16.35592 -37.51200 -32.19592L-37.44000 -36.37192L-24.84000 -36.37192L-24.76800 -30.17992Q-24.76800 -28.30792 -24.04800 -27.33592Q-23.32800 -26.36392 -21.67200 -26.36392Q-19.15200 -26.36392 -19.15200 -30.46792Q-19.15200 -33.49192 -20.34000 -35.21992Q-21.52800 -36.94792 -24.12000 -38.89192L-30.81600 -44.07592Q-34.27200 -46.73992 -35.78400 -49.58392Q-37.29600 -52.42792 -37.29600 -57.61192Q-37.29600 -61.64392 -35.17200 -64.48792Q-33.04800 -67.33192 -29.52000 -68.77192Q-25.99200 -70.21192 -21.67200 -70.21192Q-6.33600 -70.21192 -6.33600 -54.94792L-6.33600 -53.93992L-19.36800 -53.93992L-19.36800 -55.95592Q-19.36800 -57.82792 -19.98000 -59.15992Q-20.59200 -60.49192 -22.03200 -60.49192Q-23.32800 -60.49192 -24.01200 -59.73592Q-24.69600 -58.97992 -24.69600 -57.68392Q-24.69600 -54.80392 -22.46400 -53.21992L-14.68800 -47.53192Q-10.51200 -44.43592 -8.28000 -40.79992Q-6.04800 -37.16392 -6.04800 -31.61992Q-6.04800 -24.27592 -10.22400 -20.31592Q-14.40000 -16.35592 -21.88800 -16.35592ZM-2.16000 -69.63592L10.15200 -69.63592L10.15200 -63.51592Q11.01600 -66.89992 13.10400 -68.55592Q15.19200 -70.21192 19.00800 -70.21192Q22.10400 -70.21192 24.37200 -68.80792Q26.64000 -67.40392 27.57600 -64.95592Q29.16000 -67.69192 31.10400 -68.95192Q33.04800 -70.21192 36.50400 -70.21192Q42.69600 -70.21192 45.10800 -66.43192Q47.52000 -62.65192 47.52000 -55.45192L47.37600 -16.93192L34.70400 -16.93192L34.70400 -55.66792Q34.70400 -60.77992 32.11200 -60.77992Q30.31200 -60.77992 29.52000 -59.01592Q28.72800 -57.25192 28.72800 -54.80392L28.72800 -16.93192L16.12800 -16.93192L16.12800 -55.66792Q16.12800 -57.89992 15.66000 -59.26792Q15.19200 -60.63592 13.68000 -60.63592Q11.73600 -60.63592 10.94400 -58.72792Q10.15200 -56.81992 10.15200 -54.15592L10.15200 -16.93192L-2.16000 -16.93192ZM67.75200 -16.35592Q51.98400 -16.35592 51.98400 -32.69992L51.98400 -53.86792Q51.98400 -61.35592 56.19600 -65.78392Q60.40800 -70.21192 67.75200 -70.21192Q75.09600 -70.21192 79.30800 -65.78392Q83.52000 -61.35592 83.52000 -53.86792L83.52000 -32.69992Q83.52000 -16.35592 67.75200 -16.35592ZM67.75200 -26.07592Q69.26400 -26.07592 69.98400 -27.15592Q70.70400 -28.23592 70.70400 -30.10792L70.70400 -55.88392Q70.70400 -60.49192 67.75200 -60.49192Q64.80000 -60.49192 64.80000 -55.88392L64.80000 -30.10792Q64.80000 -28.23592 65.52000 -27.15592Q66.24000 -26.07592 67.75200 -26.07592ZM98.56800 -16.35592Q93.96000 -16.35592 91.62000 -18.55192Q89.28000 -20.74792 88.52400 -24.38392Q87.76800 -28.01992 87.76800 -33.70792L87.91200 -57.46792Q87.91200 -63.08392 90.75600 -66.64792Q93.60000 -70.21192 98.78400 -70.21192Q103.89600 -70.21192 106.41600 -66.82792L106.41600 -79.13992L119.01600 -79.13992L119.01600 -16.93192L106.41600 -16.93192L106.41600 -22.54792Q105.33600 -19.45192 103.50000 -17.90392Q101.66400 -16.35592 98.56800 -16.35592ZM103.39200 -26.21992Q105.26400 -26.21992 105.84000 -28.05592Q106.41600 -29.89192 106.41600 -32.98792L106.41600 -35.21992L106.41600 -55.01992Q106.41600 -57.32392 105.76800 -58.90792Q105.12000 -60.49192 103.46400 -60.49192Q101.59200 -60.49192 100.98000 -59.01592Q100.36800 -57.53992 100.36800 -55.01992L100.36800 -32.84392Q100.36800 -26.21992 103.39200 -26.21992ZM-151.30800 0.32008L-134.24400 0.32008Q-127.62000 0.32008 -124.30800 3.99208Q-120.99600 7.66408 -120.92400 14.86408L-120.78000 43.80808Q-120.70800 52.95208 -123.94800 57.56008Q-127.18800 62.16808 -134.67600 62.16808L-151.30800 62.16808ZM-136.69200 51.22408Q-133.30800 51.22408 -133.30800 47.91208L-133.30800 16.01608Q-133.30800 13.92808 -133.63200 12.88408Q-133.95600 11.84008 -134.82000 11.48008Q-135.68400 11.12008 -137.48400 11.12008L-138.85200 11.12008L-138.85200 51.22408ZM-106.45200 62.74408Q-112.57200 62.74408 -114.84000 58.67608Q-117.10800 54.60808 -117.10800 47.04808Q-117.10800 40.85608 -115.48800 37.54408Q-113.86800 34.23208 -110.98800 32.68408Q-108.10800 31.13608 -102.20400 29.26408L-98.74800 28.11208L-98.74800 27.96808L-98.74800 22.71208Q-98.74800 20.62408 -99.57600 19.50808Q-100.40400 18.39208 -101.55600 18.39208Q-102.56400 18.39208 -103.32000 19.32808Q-104.07600 20.26408 -104.07600 21.84808L-104.07600 25.01608L-116.31600 25.01608L-116.31600 23.28808Q-116.31600 15.51208 -112.68000 12.20008Q-109.04400 8.88808 -100.83600 8.88808Q-94.28400 8.88808 -90.18000 12.30808Q-86.07600 15.72808 -86.07600 21.99208L-86.07600 62.16808L-98.60400 62.16808L-98.60400 55.90408Q-99.54000 59.14408 -101.59200 60.94408Q-103.64400 62.74408 -106.45200 62.74408ZM-101.48400 52.95208Q-100.04400 52.95208 -99.43200 51.76408Q-98.82000 50.57608 -98.82000 48.84808L-98.82000 34.16008Q-101.62800 35.24008 -102.96000 36.89608Q-104.29200 38.55208 -104.29200 41.50408L-104.29200 48.27208Q-104.29200 52.95208 -101.48400 52.95208ZM-66.78000 62.74408Q-82.40400 62.74408 -82.40400 46.90408L-82.33200 42.72808L-69.73200 42.72808L-69.66000 48.92008Q-69.66000 50.79208 -68.94000 51.76408Q-68.22000 52.73608 -66.56400 52.73608Q-64.04400 52.73608 -64.04400 48.63208Q-64.04400 45.60808 -65.23200 43.88008Q-66.42000 42.15208 -69.01200 40.20808L-75.70800 35.02408Q-79.16400 32.36008 -80.67600 29.51608Q-82.18800 26.67208 -82.18800 21.48808Q-82.18800 17.45608 -80.06400 14.61208Q-77.94000 11.76808 -74.41200 10.32808Q-70.88400 8.88808 -66.56400 8.88808Q-51.22800 8.88808 -51.22800 24.15208L-51.22800 25.16008L-64.26000 25.16008L-64.26000 23.14408Q-64.26000 21.27208 -64.87200 19.94008Q-65.48400 18.60808 -66.92400 18.60808Q-68.22000 18.60808 -68.90400 19.36408Q-69.58800 20.12008 -69.58800 21.41608Q-69.58800 24.29608 -67.35600 25.88008L-59.58000 31.56808Q-55.40400 34.66408 -53.17200 38.30008Q-50.94000 41.93608 -50.94000 47.48008Q-50.94000 54.82408 -55.11600 58.78408Q-59.29200 62.74408 -66.78000 62.74408ZM-47.05200 -0.03992L-34.09200 -0.03992L-34.09200 14.64808Q-32.07600 8.88808 -26.38800 8.88808Q-21.06000 8.88808 -18.32400 12.27208Q-15.58800 15.65608 -15.58800 21.56008L-15.58800 62.16808L-28.18800 62.16808L-28.18800 22.35208Q-28.18800 20.62408 -28.98000 19.54408Q-29.77200 18.46408 -31.28400 18.46408Q-32.58000 18.46408 -33.33600 19.58008Q-34.09200 20.69608 -34.09200 22.28008L-34.09200 62.16808L-47.05200 62.16808ZM9.68400 62.74408Q4.50000 62.74408 2.26800 56.55208L2.26800 62.16808L-10.69200 62.16808L-10.69200 -0.03992L2.26800 -0.03992L2.26800 11.98408Q5.29200 8.88808 9.32400 8.88808Q15.44400 8.88808 18.10800 12.52408Q20.77200 16.16008 20.77200 23.00008L20.77200 48.41608Q20.77200 54.89608 18.03600 58.82008Q15.30000 62.74408 9.68400 62.74408ZM5.43600 52.95208Q6.73200 52.95208 7.27200 52.12408Q7.81200 51.29608 7.92000 50.03608Q8.02800 48.77608 8.02800 46.11208L8.02800 24.15208Q8.02800 21.34408 7.52400 19.97608Q7.02000 18.60808 5.36400 18.60808Q3.56400 18.60808 2.91600 19.97608Q2.26800 21.34408 2.26800 24.00808L2.26800 46.11208Q2.26800 49.56808 2.84400 51.26008Q3.42000 52.95208 5.43600 52.95208ZM40.71600 62.74408Q24.94800 62.74408 24.94800 46.40008L24.94800 25.23208Q24.94800 17.74408 29.16000 13.31608Q33.37200 8.88808 40.71600 8.88808Q48.06000 8.88808 52.27200 13.31608Q56.48400 17.74408 56.48400 25.23208L56.48400 46.40008Q56.48400 62.74408 40.71600 62.74408ZM40.71600 53.02408Q42.22800 53.02408 42.94800 51.94408Q43.66800 50.86408 43.66800 48.99208L43.66800 23.21608Q43.66800 18.60808 40.71600 18.60808Q37.76400 18.60808 37.76400 23.21608L37.76400 48.99208Q37.76400 50.86408 38.48400 51.94408Q39.20400 53.02408 40.71600 53.02408ZM70.74000 62.74408Q64.62000 62.74408 62.35200 58.67608Q60.08400 54.60808 60.08400 47.04808Q60.08400 40.85608 61.70400 37.54408Q63.32400 34.23208 66.20400 32.68408Q69.08400 31.13608 74.98800 29.26408L78.44400 28.11208L78.44400 27.96808L78.44400 22.71208Q78.44400 20.62408 77.61600 19.50808Q76.78800 18.39208 75.63600 18.39208Q74.62800 18.39208 73.87200 19.32808Q73.11600 20.26408 73.11600 21.84808L73.11600 25.01608L60.87600 25.01608L60.87600 23.28808Q60.87600 15.51208 64.51200 12.20008Q68.14800 8.88808 76.35600 8.88808Q82.90800 8.88808 87.01200 12.30808Q91.11600 15.72808 91.11600 21.99208L91.11600 62.16808L78.58800 62.16808L78.58800 55.90408Q77.65200 59.14408 75.60000 60.94408Q73.54800 62.74408 70.74000 62.74408ZM75.70800 52.95208Q77.14800 52.95208 77.76000 51.76408Q78.37200 50.57608 78.37200 48.84808L78.37200 34.16008Q75.56400 35.24008 74.23200 36.89608Q72.90000 38.55208 72.90000 41.50408L72.90000 48.27208Q72.90000 52.95208 75.70800 52.95208ZM95.94000 9.46408L108.54000 9.46408L108.54000 15.29608Q109.47600 12.20008 111.81600 10.50808Q114.15600 8.81608 117.61200 8.81608L117.61200 19.32808Q114.94800 19.32808 111.74400 20.08408Q108.54000 20.84008 108.54000 21.84808L108.54000 62.16808L95.94000 62.16808ZM131.07600 62.74408Q126.46800 62.74408 124.12800 60.54808Q121.78800 58.35208 121.03200 54.71608Q120.27600 51.08008 120.27600 45.39208L120.42000 21.63208Q120.42000 16.01608 123.26400 12.45208Q126.10800 8.88808 131.29200 8.88808Q136.40400 8.88808 138.92400 12.27208L138.92400 -0.03992L151.52400 -0.03992L151.52400 62.16808L138.92400 62.16808L138.92400 56.55208Q137.84400 59.64808 136.00800 61.19608Q134.17200 62.74408 131.07600 62.74408ZM135.90000 52.88008Q137.77200 52.88008 138.34800 51.04408Q138.92400 49.20808 138.92400 46.11208L138.92400 43.88008L138.92400 24.08008Q138.92400 21.77608 138.27600 20.19208Q137.62800 18.60808 135.97200 18.60808Q134.10000 18.60808 133.48800 20.08408Q132.87600 21.56008 132.87600 24.08008L132.87600 46.25608Q132.87600 52.88008 135.90000 52.88008Z"></path></g><g fill="url(#SVGID_51)"><path d=""></path></g></g></g>
<g id="9842d4df-a74d-4342-b1c1-2227a54f2d85">
<g style="">
		<g id="9842d4df-a74d-4342-b1c1-2227a54f2d85-child-0">
<path style="stroke: rgb(193,193,193); stroke-width: 0; stroke-dasharray: none; stroke-linecap: butt; stroke-dashoffset: 0; stroke-linejoin: miter; stroke-miterlimit: 4; fill: rgb(34,85,0); fill-rule: nonzero; opacity: 1;" transform="matrix(1.155993 0 0 1.155993 533.333245 273.025661) matrix(1 0 0 1 0 0)  translate(-197.750043, -211.945)" d="M 240.57 0.00 L 283.09 35.29 L 325.09 71.08 L 273.32 90.08 L 221.42 108.72 L 227.80 71.60 C 150.70 56.64 74.37 100.83 48.97 175.15 C 23.56 249.47 56.86 331.14 126.99 366.51 C 197.12 401.87 282.58 380.10 327.24 315.49 C 371.90 250.88 362.07 163.23 304.20 110.13 L 338.00 87.00 C 374.86 123.91 395.55 173.96 395.50 226.13 C 395.50 335.36 306.96 423.89 197.74 423.89 C 88.52 423.89 0.00 335.36 0.00 226.13 C 0.00 116.90 88.51 28.40 197.74 28.40 C 210.20 28.40 222.64 29.59 234.88 31.94 L 240.57 0.00 Z" stroke-linecap="round"></path>
</g>
		<g id="9842d4df-a74d-4342-b1c1-2227a54f2d85-child-1">
<path style="stroke: rgb(193,193,193); stroke-width: 0; stroke-dasharray: none; stroke-linecap: butt; stroke-dashoffset: 0; stroke-linejoin: miter; stroke-miterlimit: 4; fill: rgb(68,170,0); fill-rule: nonzero; opacity: 1;" transform="matrix(1.155993 0 0 1.155993 533.333245 273.025661) matrix(1 0 0 1 -7.065043 23.61)  translate(-190.685, -235.555)" d="M 101.76 174.49 C 107.15 176.94 134.37 190.33 151.94 199.00 L 151.94 344.28 L 101.76 344.28 L 101.76 174.49 Z M 215.87 171.35 C 199.19 183.24 182.70 195.41 166.08 207.35 L 165.87 344.25 L 216.05 344.25 L 216.05 171.35 Z M 230.00 161.19 L 230.00 344.00 L 279.36 344.00 L 279.61 126.83 C 253.76 144.83 247.69 149.06 230.00 161.23 Z" stroke-linecap="round"></path>
</g>
</g>
</g>
<g id="fd019fec-c708-4fa4-81f9-c3d5a88806c6">
<g style="">
		<g id="fd019fec-c708-4fa4-81f9-c3d5a88806c6-child-0">
<path style="stroke: rgb(193,193,193); stroke-width: 0; stroke-dasharray: none; stroke-linecap: butt; stroke-dashoffset: 0; stroke-linejoin: miter; stroke-miterlimit: 4; fill: rgb(68,170,0); fill-rule: nonzero; opacity: 1;" transform="matrix(1.166923 0 0 1.166923 553.966994 740.728476) matrix(1 0 0 1 -36.685 43.77)  translate(-176.885, -262.94)" d="M 0.11 438.33 C 0.11 372.87 -0.16 338.74 0.11 252.50 C 40.18 212.67 47.95 205.16 73.51 180.77 L 73.51 438.33 Z M 93.91 163.18 L 93.91 438.34 L 167.33 438.34 L 167.33 202.91 C 141.62 188.91 101.79 167.15 93.91 163.18 Z M 260.91 158.08 L 189.50 215.00 L 187.71 214.00 L 187.71 438.30 L 261.13 438.30 L 261.13 158.08 Z M 347.80 87.54 L 347.80 88.79 L 281.55 141.62 L 281.55 437.81 L 353.78 437.81 L 353.78 97.21 L 347.83 87.55 Z" stroke-linecap="round"></path>
</g>
		<g id="fd019fec-c708-4fa4-81f9-c3d5a88806c6-child-1">
<path style="stroke: rgb(193,193,193); stroke-width: 0; stroke-dasharray: none; stroke-linecap: butt; stroke-dashoffset: 0; stroke-linejoin: miter; stroke-miterlimit: 4; fill: rgb(34,85,0); fill-rule: nonzero; opacity: 1;" transform="matrix(1.166923 0 0 1.166923 553.966994 740.728476) matrix(1 0 0 1 0.069845 -92.92)  translate(-213.639845, -126.25)" d="M 427.15 0.00 L 300.75 11.32 Q 310.49 27.10 320.23 42.89 L 189.23 147.83 C 189.23 147.83 92.77 95.00 92.77 95.66 C 92.77 96.32 -1.00 185.31 0.14 187.20 L 0.14 252.50 C 6.63 243.77 92.47 163.12 92.47 162.50 C 92.47 161.88 189.47 214.99 189.47 214.99 L 347.77 88.78 L 347.77 87.54 L 367.19 119.00 Z" stroke-linecap="round"></path>
</g>
</g>
</g>

  </svg>